<svg width="28" height="28" viewBox="0 0 28 28" fill="none" xmlns="http://www.w3.org/2000/svg">
<path fill-rule="evenodd" clip-rule="evenodd" d="M10.5215 5.4427C10.7158 3.69355 12.199 2.33331 14 2.33331C15.8009 2.33331 17.2842 3.69355 17.4784 5.44271C20.2479 6.74844 22.1666 9.56554 22.1666 12.8333V16.5182C22.1666 16.8374 22.2935 17.1435 22.5192 17.3693L24.1583 19.0084C24.4919 19.342 24.5917 19.8438 24.4112 20.2798C24.2306 20.7157 23.8052 21 23.3333 21L18.6666 21C18.6666 23.5773 16.5773 25.6666 14 25.6666C11.4226 25.6666 9.33331 23.5773 9.33331 21L4.66664 21C4.19477 21 3.76936 20.7157 3.58878 20.2798C3.4082 19.8438 3.50802 19.342 3.84168 19.0084L5.48077 17.3693C5.70649 17.1435 5.83331 16.8374 5.83331 16.5182V12.8333C5.83331 9.56554 7.75202 6.74843 10.5215 5.4427ZM11.6666 21C11.6666 22.2886 12.7113 23.3333 14 23.3333C15.2886 23.3333 16.3333 22.2886 16.3333 21H11.6666ZM14 4.66665C13.3556 4.66665 12.8333 5.18898 12.8333 5.83331V6.23163C12.8333 6.72608 12.5216 7.16684 12.0554 7.33161C9.7882 8.13296 8.16664 10.2953 8.16664 12.8333V16.5182C8.16664 17.299 7.90845 18.0532 7.43935 18.6667H20.5606C20.0915 18.0532 19.8333 17.299 19.8333 16.5182V12.8333C19.8333 10.2953 18.2117 8.13296 15.9445 7.33161C15.4783 7.16684 15.1666 6.72608 15.1666 6.23163V5.83331C15.1666 5.18898 14.6443 4.66665 14 4.66665Z" fill="#29384B" fill-opacity="0.8"/>
</svg>
