<svg width="21" height="20" viewBox="0 0 21 20" fill="none" xmlns="http://www.w3.org/2000/svg">
<path fill-rule="evenodd" clip-rule="evenodd" d="M0.5 3C0.5 1.34315 1.84315 0 3.5 0H17.5C19.1569 0 20.5 1.34315 20.5 3V13C20.5 14.6569 19.1569 16 17.5 16H14.0308L14.403 17.4888L15.2071 18.2929C15.4931 18.5789 15.5787 19.009 15.4239 19.3827C15.2691 19.7564 14.9045 20 14.5 20H6.5C6.09554 20 5.7309 19.7564 5.57612 19.3827C5.42134 19.009 5.5069 18.5789 5.79289 18.2929L6.59704 17.4888L6.96922 16H3.5C1.84315 16 0.5 14.6569 0.5 13V3ZM2.5 12V13C2.5 13.5523 2.94772 14 3.5 14H8.22757C8.24198 13.9997 8.25643 13.9997 8.27092 14H12.7291C12.7436 13.9997 12.758 13.9997 12.7724 14H17.5C18.0523 14 18.5 13.5523 18.5 13V12H2.5ZM18.5 10H2.5V3C2.5 2.44772 2.94772 2 3.5 2H17.5C18.0523 2 18.5 2.44772 18.5 3V10ZM11.9692 16H9.03078L8.53078 18H12.4692L11.9692 16Z" fill="#29384B" fill-opacity="0.3"/>
</svg>
