<svg width="8" height="12" viewBox="0 0 8 12" fill="none" xmlns="http://www.w3.org/2000/svg">
<path fill-rule="evenodd" clip-rule="evenodd" d="M3.99999 0.666668C4.1768 0.666668 4.34637 0.736906 4.47139 0.86193L7.13806 3.5286C7.39841 3.78895 7.39841 4.21106 7.13806 4.47141C6.87771 4.73176 6.4556 4.73176 6.19525 4.47141L3.99999 2.27614L1.80473 4.47141C1.54438 4.73176 1.12227 4.73176 0.861919 4.47141C0.601569 4.21106 0.601569 3.78895 0.861919 3.5286L3.52859 0.86193C3.65361 0.736906 3.82318 0.666668 3.99999 0.666668ZM0.861919 7.5286C1.12227 7.26825 1.54438 7.26825 1.80473 7.5286L3.99999 9.72386L6.19525 7.5286C6.4556 7.26825 6.87771 7.26825 7.13806 7.5286C7.39841 7.78895 7.39841 8.21106 7.13806 8.47141L4.47139 11.1381C4.21104 11.3984 3.78893 11.3984 3.52859 11.1381L0.861919 8.47141C0.601569 8.21106 0.601569 7.78895 0.861919 7.5286Z" fill="#111827"/>
</svg>
