<svg width="18" height="19" viewBox="0 0 18 19" fill="none" xmlns="http://www.w3.org/2000/svg">
<path fill-rule="evenodd" clip-rule="evenodd" d="M9 19C8.44771 19 8 18.5523 8 18L8 12.4142L6.70711 13.7071C6.31658 14.0976 5.68342 14.0976 5.29289 13.7071C4.90237 13.3166 4.90237 12.6834 5.29289 12.2929L8.29289 9.29289C8.68342 8.90237 9.31658 8.90237 9.70711 9.29289L12.7071 12.2929C13.0976 12.6834 13.0976 13.3166 12.7071 13.7071C12.3166 14.0976 11.6834 14.0976 11.2929 13.7071L10 12.4142L10 18C10 18.5523 9.55228 19 9 19ZM15 16C15.5523 16 16 15.5523 16 15L16 9L14.4142 9C13.8838 9 13.3751 8.78929 13 8.41421L10.5858 6L7.41421 6L5 8.41421C4.62493 8.78928 4.11622 9 3.58579 9L2 9L2 15C2 15.5523 2.44772 16 3 16L5 16C5.55229 16 6 16.4477 6 17C6 17.5523 5.55229 18 5 18L3 18C1.34315 18 2.04844e-07 16.6569 3.49691e-07 15L1.39876e-06 3C1.54361e-06 1.34314 1.34315 -1.45619e-06 3 -1.31134e-06L15 -2.62268e-07C16.6569 -1.17422e-07 18 1.34315 18 3L18 15C18 16.6569 16.6569 18 15 18L13 18C12.4477 18 12 17.5523 12 17C12 16.4477 12.4477 16 13 16L15 16ZM16 7L16 3C16 2.44772 15.5523 2 15 2L3 2C2.44772 2 2 2.44771 2 3L2 7L3.58579 7L6 4.58579C6.37507 4.21071 6.88378 4 7.41421 4L10.5858 4C11.1162 4 11.6249 4.21071 12 4.58579L14.4142 7L16 7Z" fill="#29384B" fill-opacity="0.4"/>
</svg>
