<svg width="20" height="20" viewBox="0 0 20 20" fill="none" xmlns="http://www.w3.org/2000/svg">
<path fill-rule="evenodd" clip-rule="evenodd" d="M5.83334 5.83335C5.83334 3.53217 7.69882 1.66669 10 1.66669C12.3012 1.66669 14.1667 3.53217 14.1667 5.83335V6.66669H15.8333C16.2667 6.66669 16.6278 6.99891 16.6638 7.43082L17.4971 17.4308C17.5165 17.6631 17.4377 17.8928 17.2799 18.0643C17.1221 18.2358 16.8997 18.3334 16.6667 18.3334H3.33334C3.10029 18.3334 2.8779 18.2358 2.7201 18.0643C2.5623 17.8928 2.48353 17.6631 2.50288 17.4308L3.33621 7.43082C3.37221 6.99891 3.73326 6.66669 4.16667 6.66669H5.83334V5.83335ZM5.83334 8.33335V9.16669C5.83334 9.62692 6.20643 10 6.66667 10C7.12691 10 7.5 9.62692 7.5 9.16669V8.33335H12.5V9.16669C12.5 9.62692 12.8731 10 13.3333 10C13.7936 10 14.1667 9.62692 14.1667 9.16669V8.33335H15.0666L15.761 16.6667H4.239L4.93345 8.33335H5.83334ZM12.5 6.66669H7.5V5.83335C7.5 4.45264 8.61929 3.33335 10 3.33335C11.3807 3.33335 12.5 4.45264 12.5 5.83335V6.66669Z" fill="#C63E4A"/>
</svg>
