<svg width="21" height="21" viewBox="0 0 21 21" fill="none" xmlns="http://www.w3.org/2000/svg">
<g clip-path="url(#clip0_81_136)">
<path d="M17.1995 5.90625H3.80053C3.63923 5.90623 3.48348 5.96518 3.36261 6.07199C3.24175 6.17881 3.1641 6.32613 3.14428 6.48621L1.97534 16.33C1.96452 16.4223 1.97347 16.5159 2.00157 16.6046C2.02967 16.6932 2.07629 16.7749 2.13834 16.8442C2.2004 16.9134 2.27646 16.9687 2.36149 17.0063C2.44653 17.044 2.53859 17.0631 2.63159 17.0625H18.3685C18.4615 17.0631 18.5535 17.044 18.6386 17.0063C18.7236 16.9687 18.7997 16.9134 18.8617 16.8442C18.9238 16.7749 18.9704 16.6932 18.9985 16.6046C19.0266 16.5159 19.0355 16.4223 19.0247 16.33L17.8558 6.48621C17.836 6.32613 17.7583 6.17881 17.6374 6.07199C17.5166 5.96518 17.3608 5.90623 17.1995 5.90625Z" stroke="#29384B" stroke-width="1.21154" stroke-linecap="round" stroke-linejoin="round"/>
<path d="M7.21872 8.53125V5.25C7.21872 4.37976 7.56442 3.54516 8.17978 2.92981C8.79513 2.31445 9.62973 1.96875 10.5 1.96875C11.3702 1.96875 12.2048 2.31445 12.8202 2.92981C13.4355 3.54516 13.7812 4.37976 13.7812 5.25V8.53125" stroke="#29384B" stroke-width="1.21154" stroke-linecap="round" stroke-linejoin="round"/>
</g>
<defs>
<clipPath id="clip0_81_136">
<rect width="21" height="21" fill="white"/>
</clipPath>
</defs>
</svg>
